<svg width="163" height="163" viewBox="0 0 163 163" fill="none" xmlns="http://www.w3.org/2000/svg">
<rect width="163" height="163" rx="30" fill="#ED2227"/>
<path d="M37.6288 61.1863L32.4107 58.1645C32.2529 58.0734 32.0738 58.0254 31.8915 58.0254C31.7093 58.0254 31.5302 58.0734 31.3723 58.1645L26.1569 61.1863C26 61.2769 25.8695 61.407 25.7784 61.5636C25.6873 61.7203 25.6388 61.8981 25.6377 62.0793V105.664C25.636 105.846 25.6833 106.026 25.7746 106.184C25.866 106.342 25.998 106.472 26.1569 106.562L31.3775 109.581C31.5347 109.674 31.714 109.724 31.8967 109.724C32.0794 109.724 32.2588 109.674 32.4159 109.581L37.6339 106.559C37.7916 106.468 37.9226 106.338 38.0137 106.18C38.1049 106.022 38.153 105.843 38.1531 105.661V62.0845C38.1524 61.9019 38.1036 61.7227 38.0115 61.565C37.9194 61.4073 37.7874 61.2766 37.6288 61.1863Z" fill="white"/>
<path d="M136.827 61.1863L131.612 58.1645C131.454 58.0734 131.275 58.0254 131.093 58.0254C130.91 58.0254 130.731 58.0734 130.573 58.1645L125.358 61.1863C125.201 61.2769 125.071 61.407 124.98 61.5636C124.888 61.7203 124.84 61.8981 124.839 62.0793V85.4435L106.882 61.9391L106.519 61.4563C106.435 61.3493 106.33 61.2609 106.21 61.1967L106.026 61.0876H106L100.994 58.1801C100.837 58.0889 100.658 58.041 100.475 58.041C100.293 58.041 100.114 58.0889 99.956 58.1801L94.7406 61.2018C94.5837 61.2925 94.4532 61.4225 94.3621 61.5792C94.271 61.7359 94.2225 61.9137 94.2214 62.0949V105.664C94.2216 105.846 94.2697 106.025 94.3608 106.182C94.4519 106.34 94.5829 106.471 94.7406 106.562L99.956 109.584C100.113 109.677 100.293 109.726 100.475 109.726C100.658 109.726 100.837 109.677 100.994 109.584L106.21 106.562C106.368 106.471 106.499 106.34 106.59 106.182C106.681 106.025 106.729 105.846 106.729 105.664V82.3179L125.143 106.419H125.174C125.234 106.478 125.301 106.528 125.374 106.57L130.589 109.592C130.746 109.685 130.926 109.734 131.108 109.734C131.291 109.734 131.47 109.685 131.627 109.592L136.843 106.57C137 106.479 137.13 106.349 137.221 106.192C137.312 106.036 137.361 105.858 137.362 105.677V62.0845C137.36 61.9008 137.31 61.721 137.216 61.5632C137.122 61.4054 136.988 61.2753 136.827 61.1863Z" fill="white"/>
<path d="M67.3098 58.0275H50.62C50.4376 58.0278 50.2586 58.0761 50.1008 58.1677L44.8854 61.1894C44.7277 61.2805 44.5967 61.4114 44.5056 61.569C44.4145 61.7267 44.3664 61.9055 44.3662 62.0876V105.664C44.3664 105.846 44.4145 106.025 44.5056 106.183C44.5967 106.341 44.7277 106.472 44.8854 106.563L50.1008 109.584C50.2753 109.688 50.4775 109.735 50.6797 109.719H67.3254C72.805 109.719 78.06 107.542 81.9347 103.667C85.8093 99.7923 87.9864 94.5373 87.9871 89.0577V78.6866C87.9857 73.2065 85.8076 67.9514 81.9319 64.0771C78.0562 60.2029 72.8003 58.0268 67.3202 58.0275H67.3098ZM75.4795 87.5935C75.4788 90.6751 74.2544 93.6302 72.0754 95.8092C69.8964 97.9882 66.9413 99.2126 63.8597 99.2133H56.8505V68.5361H63.8442C66.9264 68.5389 69.8817 69.7645 72.0612 71.944C74.2407 74.1236 75.4664 77.0788 75.4691 80.1611L75.4795 87.5935Z" fill="white"/>
</svg>
